<svg xmlns="http://www.w3.org/2000/svg" xmlns:xlink="http://www.w3.org/1999/xlink" width="3591" zoomAndPan="magnify" viewBox="0 0 2693.04 1275.749945" height="1701" preserveAspectRatio="xMidYMid meet" version="1.0"><defs><g/><clipPath id="cbf0234c1b"><path d="M 1188.304688 176.050781 L 1475.3125 176.050781 L 1475.3125 463.058594 L 1188.304688 463.058594 Z M 1188.304688 176.050781 " clip-rule="nonzero"/></clipPath><clipPath id="86e45ed1c4"><path d="M 1331.808594 176.050781 C 1252.554688 176.050781 1188.304688 240.300781 1188.304688 319.554688 C 1188.304688 398.8125 1252.554688 463.058594 1331.808594 463.058594 C 1411.066406 463.058594 1475.3125 398.8125 1475.3125 319.554688 C 1475.3125 240.300781 1411.066406 176.050781 1331.808594 176.050781 Z M 1331.808594 176.050781 " clip-rule="nonzero"/></clipPath><clipPath id="f6efbe9bf5"><path d="M 1364 151 L 1504 151 L 1504 283 L 1364 283 Z M 1364 151 " clip-rule="nonzero"/></clipPath><clipPath id="e942209dd3"><path d="M 1462.160156 151.417969 L 1503.644531 198.726562 L 1396.089844 293.039062 L 1354.605469 245.726562 Z M 1462.160156 151.417969 " clip-rule="nonzero"/></clipPath><clipPath id="0b365cc25a"><path d="M 1364.25 256.390625 L 1386.777344 282.082031 L 1503.644531 198.726562 L 1462.160156 151.417969 Z M 1364.25 256.390625 " clip-rule="nonzero"/></clipPath></defs><g fill="#020e27" fill-opacity="1"><g transform="translate(56.171525, 801.875043)"><g><path d="M 123.875 -144.203125 L 123.875 -51.359375 C 123.875 -35.984375 124.695312 -26.367188 126.34375 -22.515625 C 128 -18.671875 131.296875 -15.328125 136.234375 -12.484375 C 141.179688 -9.648438 147.867188 -8.234375 156.296875 -8.234375 L 166.1875 -8.234375 L 166.1875 0 L 9.609375 0 L 9.609375 -8.234375 L 19.5 -8.234375 C 28.101562 -8.234375 35.0625 -9.789062 40.375 -12.90625 C 44.21875 -14.925781 47.238281 -18.40625 49.4375 -23.34375 C 50.90625 -27.007812 51.640625 -36.347656 51.640625 -51.359375 L 51.640625 -248.59375 C 51.640625 -263.96875 50.859375 -273.53125 49.296875 -277.28125 C 47.742188 -281.039062 44.492188 -284.382812 39.546875 -287.3125 C 34.609375 -290.25 27.925781 -291.71875 19.5 -291.71875 L 9.609375 -291.71875 L 9.609375 -299.953125 L 166.1875 -299.953125 L 166.1875 -291.71875 L 156.296875 -291.71875 C 147.691406 -291.71875 140.734375 -290.160156 135.421875 -287.046875 C 131.578125 -285.023438 128.554688 -281.453125 126.359375 -276.328125 C 124.703125 -272.847656 123.875 -263.601562 123.875 -248.59375 L 123.875 -163.703125 L 229.640625 -163.703125 L 229.640625 -248.59375 C 229.640625 -263.96875 228.859375 -273.53125 227.296875 -277.28125 C 225.742188 -281.039062 222.445312 -284.382812 217.40625 -287.3125 C 212.375 -290.25 205.644531 -291.71875 197.21875 -291.71875 L 187.609375 -291.71875 L 187.609375 -299.953125 L 344.171875 -299.953125 L 344.171875 -291.71875 L 334.28125 -291.71875 C 325.5 -291.71875 318.539062 -290.160156 313.40625 -287.046875 C 309.5625 -285.023438 306.539062 -281.453125 304.34375 -276.328125 C 302.695312 -272.847656 301.875 -263.601562 301.875 -248.59375 L 301.875 -51.359375 C 301.875 -35.984375 302.695312 -26.367188 304.34375 -22.515625 C 305.988281 -18.671875 309.285156 -15.328125 314.234375 -12.484375 C 319.179688 -9.648438 325.863281 -8.234375 334.28125 -8.234375 L 344.171875 -8.234375 L 344.171875 0 L 187.609375 0 L 187.609375 -8.234375 L 197.21875 -8.234375 C 206.007812 -8.234375 213.0625 -9.789062 218.375 -12.90625 C 222.03125 -14.925781 225.050781 -18.40625 227.4375 -23.34375 C 228.90625 -27.007812 229.640625 -36.347656 229.640625 -51.359375 L 229.640625 -144.203125 Z M 123.875 -144.203125 "/></g></g><g transform="translate(408.315227, 801.875043)"><g><path d="M 174.96875 -306.8125 C 222.757812 -306.8125 261.578125 -291.976562 291.421875 -262.3125 C 321.273438 -232.65625 336.203125 -195.578125 336.203125 -151.078125 C 336.203125 -112.984375 325.035156 -79.472656 302.703125 -50.546875 C 273.210938 -12.273438 231.550781 6.859375 177.71875 6.859375 C 123.882812 6.859375 82.222656 -11.445312 52.734375 -48.0625 C 29.296875 -76.8125 17.578125 -111.054688 17.578125 -150.796875 C 17.578125 -195.296875 32.726562 -232.421875 63.03125 -262.171875 C 93.34375 -291.929688 130.65625 -306.8125 174.96875 -306.8125 Z M 177.4375 -289.78125 C 150.15625 -289.78125 129.375 -275.773438 115.09375 -247.765625 C 103.375 -224.867188 97.515625 -191.90625 97.515625 -148.875 C 97.515625 -97.601562 106.488281 -59.789062 124.4375 -35.4375 C 137.070312 -18.21875 154.648438 -9.609375 177.171875 -9.609375 C 192.367188 -9.609375 205.003906 -13.363281 215.078125 -20.875 C 228.078125 -30.21875 238.191406 -45.234375 245.421875 -65.921875 C 252.660156 -86.617188 256.28125 -113.628906 256.28125 -146.953125 C 256.28125 -186.691406 252.570312 -216.398438 245.15625 -236.078125 C 237.738281 -255.765625 228.351562 -269.632812 217 -277.6875 C 205.644531 -285.75 192.457031 -289.78125 177.4375 -289.78125 Z M 177.4375 -289.78125 "/></g></g><g transform="translate(760.458929, 801.875043)"><g><path d="M 122.234375 -135.6875 L 122.234375 -52.734375 C 122.234375 -36.441406 123.238281 -26.1875 125.25 -21.96875 C 127.269531 -17.757812 130.796875 -14.414062 135.828125 -11.9375 C 140.867188 -9.46875 150.253906 -8.234375 163.984375 -8.234375 L 163.984375 0 L 11.53125 0 L 11.53125 -8.234375 C 25.445312 -8.234375 34.832031 -9.515625 39.6875 -12.078125 C 44.539062 -14.648438 47.972656 -17.992188 49.984375 -22.109375 C 52.003906 -26.234375 53.015625 -36.441406 53.015625 -52.734375 L 53.015625 -247.21875 C 53.015625 -263.507812 52.003906 -273.710938 49.984375 -277.828125 C 47.972656 -281.953125 44.492188 -285.296875 39.546875 -287.859375 C 34.609375 -290.429688 25.269531 -291.71875 11.53125 -291.71875 L 11.53125 -299.953125 L 142.28125 -299.953125 C 185.3125 -299.953125 216.164062 -292.257812 234.84375 -276.875 C 253.53125 -261.5 262.875 -242.363281 262.875 -219.46875 C 262.875 -199.875 256.828125 -183.164062 244.734375 -169.34375 C 232.648438 -155.519531 215.988281 -146.132812 194.75 -141.1875 C 180.46875 -137.519531 156.296875 -135.6875 122.234375 -135.6875 Z M 122.234375 -282.640625 L 122.234375 -153 C 127.179688 -152.632812 130.84375 -152.453125 133.21875 -152.453125 C 151.34375 -152.453125 165.257812 -157.804688 174.96875 -168.515625 C 184.675781 -179.222656 189.53125 -195.84375 189.53125 -218.375 C 189.53125 -240.53125 184.675781 -256.78125 174.96875 -267.125 C 165.257812 -277.46875 150.703125 -282.640625 131.296875 -282.640625 Z M 122.234375 -282.640625 "/></g></g><g transform="translate(1037.064787, 801.875043)"><g><path d="M 212.609375 -306.8125 L 215.078125 -206.828125 L 206.015625 -206.828125 C 201.796875 -231.921875 191.304688 -252.066406 174.546875 -267.265625 C 157.796875 -282.460938 139.71875 -290.0625 120.3125 -290.0625 C 105.289062 -290.0625 93.382812 -286.03125 84.59375 -277.96875 C 75.8125 -269.914062 71.421875 -260.671875 71.421875 -250.234375 C 71.421875 -243.640625 72.976562 -237.78125 76.09375 -232.65625 C 80.300781 -225.695312 87.164062 -218.828125 96.6875 -212.046875 C 103.644531 -207.109375 119.578125 -198.503906 144.484375 -186.234375 C 179.640625 -169.015625 203.351562 -152.71875 215.625 -137.34375 C 227.707031 -121.957031 233.75 -104.378906 233.75 -84.609375 C 233.75 -59.515625 224 -37.945312 204.5 -19.90625 C 185 -1.875 160.140625 7.140625 129.921875 7.140625 C 120.585938 7.140625 111.707031 6.175781 103.28125 4.25 C 94.851562 2.332031 84.320312 -1.28125 71.6875 -6.59375 C 64.550781 -9.519531 58.691406 -10.984375 54.109375 -10.984375 C 50.265625 -10.984375 46.234375 -9.519531 42.015625 -6.59375 C 37.804688 -3.664062 34.332031 0.816406 31.59375 6.859375 L 23.34375 6.859375 L 23.34375 -106.296875 L 31.59375 -106.296875 C 38.1875 -74.429688 50.726562 -50.164062 69.21875 -33.5 C 87.71875 -16.84375 107.585938 -8.515625 128.828125 -8.515625 C 145.304688 -8.515625 158.488281 -13 168.375 -21.96875 C 178.269531 -30.945312 183.21875 -41.382812 183.21875 -53.28125 C 183.21875 -60.425781 181.289062 -67.296875 177.4375 -73.890625 C 173.59375 -80.484375 167.867188 -86.753906 160.265625 -92.703125 C 152.671875 -98.648438 139.171875 -106.476562 119.765625 -116.1875 C 92.472656 -129.550781 72.828125 -140.945312 60.828125 -150.375 C 48.835938 -159.8125 39.640625 -170.34375 33.234375 -181.96875 C 26.828125 -193.601562 23.625 -206.46875 23.625 -220.5625 C 23.625 -244.375 32.410156 -264.703125 49.984375 -281.546875 C 67.566406 -298.390625 89.632812 -306.8125 116.1875 -306.8125 C 126.070312 -306.8125 135.503906 -305.625 144.484375 -303.25 C 151.441406 -301.414062 159.910156 -298.117188 169.890625 -293.359375 C 179.867188 -288.597656 186.875 -286.21875 190.90625 -286.21875 C 194.75 -286.21875 197.769531 -287.359375 199.96875 -289.640625 C 202.164062 -291.929688 204.179688 -297.65625 206.015625 -306.8125 Z M 212.609375 -306.8125 "/></g></g><g transform="translate(1288.949169, 801.875043)"><g/></g><g transform="translate(1402.118599, 801.875043)"><g><path d="M 201.34375 -159.046875 C 229.90625 -152.453125 249.957031 -144.394531 261.5 -134.875 C 277.976562 -121.5 286.21875 -104.097656 286.21875 -82.671875 C 286.21875 -60.148438 277.15625 -41.472656 259.03125 -26.640625 C 236.6875 -8.878906 204.269531 0 161.78125 0 L 9.609375 0 L 9.609375 -8.234375 C 23.347656 -8.234375 32.6875 -9.515625 37.625 -12.078125 C 42.570312 -14.648438 46.050781 -17.992188 48.0625 -22.109375 C 50.082031 -26.234375 51.09375 -36.441406 51.09375 -52.734375 L 51.09375 -247.21875 C 51.09375 -263.507812 50.082031 -273.710938 48.0625 -277.828125 C 46.050781 -281.953125 42.523438 -285.296875 37.484375 -287.859375 C 32.453125 -290.429688 23.160156 -291.71875 9.609375 -291.71875 L 9.609375 -299.953125 L 153.265625 -299.953125 C 187.515625 -299.953125 211.828125 -296.882812 226.203125 -290.75 C 240.578125 -284.613281 251.882812 -275.457031 260.125 -263.28125 C 268.363281 -251.101562 272.484375 -238.148438 272.484375 -224.421875 C 272.484375 -209.953125 267.21875 -197.082031 256.6875 -185.8125 C 246.15625 -174.550781 227.707031 -165.628906 201.34375 -159.046875 Z M 120.859375 -165.078125 C 141.921875 -165.078125 157.394531 -167.410156 167.28125 -172.078125 C 177.164062 -176.753906 184.765625 -183.347656 190.078125 -191.859375 C 195.390625 -200.378906 198.046875 -211.320312 198.046875 -224.6875 C 198.046875 -237.875 195.4375 -248.722656 190.21875 -257.234375 C 185 -265.753906 177.535156 -272.210938 167.828125 -276.609375 C 158.117188 -281.003906 142.460938 -283.109375 120.859375 -282.921875 Z M 120.859375 -147.78125 L 120.859375 -40.375 C 120.859375 -32.5 122.875 -26.546875 126.90625 -22.515625 C 130.9375 -18.492188 136.882812 -16.484375 144.75 -16.484375 C 156.65625 -16.484375 167.550781 -19.09375 177.4375 -24.3125 C 187.332031 -29.53125 194.929688 -37.082031 200.234375 -46.96875 C 205.546875 -56.851562 208.203125 -67.929688 208.203125 -80.203125 C 208.203125 -94.304688 204.953125 -106.894531 198.453125 -117.96875 C 191.953125 -129.050781 183.070312 -136.832031 171.8125 -141.3125 C 160.550781 -145.800781 143.566406 -147.957031 120.859375 -147.78125 Z M 120.859375 -147.78125 "/></g></g><g transform="translate(1704.269985, 801.875043)"><g><path d="M 123.328125 -282.640625 L 123.328125 -160.40625 L 129.375 -160.40625 C 148.414062 -160.40625 162.191406 -166.398438 170.703125 -178.390625 C 179.222656 -190.390625 184.675781 -208.019531 187.0625 -231.28125 L 195.578125 -231.28125 L 195.578125 -74.15625 L 187.0625 -74.15625 C 185.226562 -91.375 181.472656 -105.429688 175.796875 -116.328125 C 170.117188 -127.222656 163.523438 -134.546875 156.015625 -138.296875 C 148.503906 -142.054688 137.609375 -143.9375 123.328125 -143.9375 L 123.328125 -59.609375 C 123.328125 -42.941406 124.015625 -32.773438 125.390625 -29.109375 C 126.765625 -25.453125 129.375 -22.429688 133.21875 -20.046875 C 137.0625 -17.671875 143.289062 -16.484375 151.90625 -16.484375 L 169.75 -16.484375 C 197.769531 -16.484375 220.25 -22.984375 237.1875 -35.984375 C 254.125 -48.984375 266.253906 -68.757812 273.578125 -95.3125 L 281.828125 -95.3125 L 268.09375 0 L 9.0625 0 L 9.0625 -8.234375 L 18.953125 -8.234375 C 27.742188 -8.234375 34.796875 -9.789062 40.109375 -12.90625 C 43.953125 -14.925781 46.878906 -18.40625 48.890625 -23.34375 C 50.535156 -27.007812 51.359375 -36.347656 51.359375 -51.359375 L 51.359375 -248.59375 C 51.359375 -262.132812 50.992188 -270.460938 50.265625 -273.578125 C 48.796875 -278.710938 46.050781 -282.648438 42.03125 -285.390625 C 36.351562 -289.609375 28.660156 -291.71875 18.953125 -291.71875 L 9.0625 -291.71875 L 9.0625 -299.953125 L 260.125 -299.953125 L 260.125 -211.234375 L 251.609375 -211.234375 C 247.398438 -232.835938 241.398438 -248.351562 233.609375 -257.78125 C 225.828125 -267.21875 214.890625 -274.132812 200.796875 -278.53125 C 192.554688 -281.269531 177.082031 -282.640625 154.375 -282.640625 Z M 123.328125 -282.640625 "/></g></g><g transform="translate(2006.421372, 801.875043)"><g><path d="M 188.4375 -85.421875 L 82.40625 -85.421875 L 69.765625 -56.03125 C 65.734375 -46.332031 63.71875 -38.367188 63.71875 -32.140625 C 63.71875 -23.710938 67.109375 -17.484375 73.890625 -13.453125 C 77.921875 -11.078125 87.71875 -9.335938 103.28125 -8.234375 L 103.28125 0 L 3.578125 0 L 3.578125 -8.234375 C 14.378906 -9.890625 23.210938 -14.332031 30.078125 -21.5625 C 36.941406 -28.789062 45.503906 -43.851562 55.765625 -66.75 L 162.890625 -306 L 167.28125 -306 L 275.234375 -60.15625 C 285.671875 -36.894531 294.1875 -22.242188 300.78125 -16.203125 C 305.71875 -11.628906 312.765625 -8.972656 321.921875 -8.234375 L 321.921875 0 L 176.890625 0 L 176.890625 -8.234375 L 182.9375 -8.234375 C 194.476562 -8.234375 202.628906 -9.789062 207.390625 -12.90625 C 210.679688 -15.289062 212.328125 -18.769531 212.328125 -23.34375 C 212.328125 -25.90625 211.867188 -28.5625 210.953125 -31.3125 C 210.585938 -32.78125 208.390625 -38.363281 204.359375 -48.0625 Z M 180.734375 -101.625 L 136.234375 -204.90625 L 90.09375 -101.625 Z M 180.734375 -101.625 "/></g></g><g transform="translate(2333.568916, 801.875043)"><g><path d="M 285.671875 -299.953125 L 285.671875 -218.640625 L 277.703125 -218.640625 C 272.941406 -237.316406 267.722656 -250.773438 262.046875 -259.015625 C 256.367188 -267.265625 248.492188 -273.769531 238.421875 -278.53125 C 232.742188 -281.269531 222.945312 -282.640625 209.03125 -282.640625 L 186.515625 -282.640625 L 186.515625 -51.359375 C 186.515625 -35.984375 187.382812 -26.367188 189.125 -22.515625 C 190.863281 -18.671875 194.203125 -15.328125 199.140625 -12.484375 C 204.085938 -9.648438 210.863281 -8.234375 219.46875 -8.234375 L 229.359375 -8.234375 L 229.359375 0 L 72.234375 0 L 72.234375 -8.234375 L 82.125 -8.234375 C 90.914062 -8.234375 97.96875 -9.789062 103.28125 -12.90625 C 107.125 -14.925781 110.144531 -18.40625 112.34375 -23.34375 C 113.988281 -27.007812 114.8125 -36.347656 114.8125 -51.359375 L 114.8125 -282.640625 L 93.109375 -282.640625 C 72.972656 -282.640625 58.328125 -278.335938 49.171875 -269.734375 C 36.347656 -257.828125 28.195312 -240.796875 24.71875 -218.640625 L 16.484375 -218.640625 L 16.484375 -299.953125 Z M 285.671875 -299.953125 "/></g></g></g><g clip-path="url(#cbf0234c1b)"><g clip-path="url(#86e45ed1c4)"><path fill="#020e27" d="M 1188.304688 176.050781 L 1475.3125 176.050781 L 1475.3125 463.058594 L 1188.304688 463.058594 Z M 1188.304688 176.050781 " fill-opacity="1" fill-rule="nonzero"/></g></g><g clip-path="url(#f6efbe9bf5)"><g clip-path="url(#e942209dd3)"><g clip-path="url(#0b365cc25a)"><path fill="#020e27" d="M 1462.160156 151.417969 L 1503.644531 198.726562 L 1396.273438 292.875 L 1354.789062 245.566406 Z M 1462.160156 151.417969 " fill-opacity="1" fill-rule="nonzero"/></g></g></g><path fill="#ffffff" d="M 1416.792969 349.707031 C 1406.191406 362.972656 1390.230469 363.265625 1377.070312 356.527344 C 1377.4375 357.027344 1377.777344 357.527344 1378.113281 358.03125 C 1384.683594 368.230469 1385.523438 382.007812 1379.820312 392.84375 C 1372.710938 405.847656 1356.210938 408.292969 1344.230469 400.84375 C 1343.535156 400.402344 1342.816406 399.894531 1342.140625 399.453125 C 1342.070312 399.421875 1341.988281 399.347656 1341.917969 399.335938 C 1341.84375 399.285156 1341.785156 399.285156 1341.734375 399.257812 C 1341.558594 399.21875 1341.664062 399.257812 1341.652344 399.265625 C 1339.664062 399.683594 1337.816406 401.308594 1335.980469 402.519531 C 1333.300781 404.453125 1330.210938 406.53125 1327.066406 407.914062 C 1318.757812 411.660156 1308.738281 410.308594 1301.660156 404.539062 C 1288.394531 393.941406 1288.101562 377.980469 1294.835938 364.820312 C 1294.339844 365.1875 1293.839844 365.527344 1293.335938 365.863281 C 1283.136719 372.433594 1269.359375 373.273438 1258.523438 367.570312 C 1245.519531 360.460938 1243.074219 343.957031 1250.523438 331.980469 C 1250.964844 331.285156 1251.472656 330.566406 1251.914062 329.886719 C 1251.945312 329.816406 1252.019531 329.734375 1252.03125 329.667969 C 1252.082031 329.59375 1252.082031 329.535156 1252.109375 329.484375 C 1252.148438 329.304688 1252.109375 329.414062 1252.101562 329.402344 C 1251.683594 327.410156 1250.058594 325.566406 1248.847656 323.726562 C 1246.914062 321.050781 1244.835938 317.960938 1243.453125 314.8125 C 1239.707031 306.507812 1241.058594 296.488281 1246.824219 289.410156 C 1257.425781 276.140625 1273.386719 275.851562 1286.546875 282.585938 C 1286.179688 282.085938 1285.839844 281.585938 1285.503906 281.082031 C 1278.933594 270.886719 1278.09375 257.105469 1283.796875 246.269531 C 1290.90625 233.269531 1307.410156 230.824219 1319.386719 238.273438 C 1320.082031 238.714844 1320.800781 239.21875 1321.480469 239.664062 C 1321.546875 239.695312 1321.632812 239.769531 1321.699219 239.78125 C 1321.773438 239.832031 1321.832031 239.832031 1321.882812 239.859375 C 1322.058594 239.898438 1321.953125 239.859375 1321.964844 239.851562 C 1323.957031 239.433594 1325.800781 237.808594 1327.640625 236.597656 C 1330.316406 234.664062 1333.40625 232.585938 1336.554688 231.203125 C 1344.859375 227.457031 1354.878906 228.808594 1361.957031 234.574219 C 1375.226562 245.175781 1375.515625 261.136719 1368.78125 274.296875 C 1369.28125 273.929688 1369.78125 273.589844 1370.285156 273.253906 C 1380.480469 266.683594 1394.261719 265.84375 1405.097656 271.546875 C 1418.097656 278.65625 1420.542969 295.160156 1413.09375 307.136719 C 1412.652344 307.832031 1412.144531 308.550781 1411.703125 309.230469 C 1411.671875 309.296875 1411.597656 309.382812 1411.585938 309.449219 C 1411.535156 309.523438 1411.535156 309.582031 1411.511719 309.632812 C 1411.472656 309.808594 1411.511719 309.703125 1411.515625 309.714844 C 1411.933594 311.707031 1413.558594 313.550781 1414.769531 315.390625 C 1416.703125 318.066406 1418.78125 321.15625 1420.167969 324.304688 C 1423.914062 332.609375 1422.5625 342.628906 1416.792969 349.707031 Z M 1416.792969 349.707031 " fill-opacity="1" fill-rule="nonzero"/><path fill="#ffffff" d="M 1315.382812 301.234375 C 1305.683594 297.828125 1297.414062 290.964844 1291.316406 282.765625 C 1291.023438 282.347656 1290.253906 281.203125 1289.957031 280.765625 C 1289.683594 280.300781 1289.414062 279.832031 1289.140625 279.359375 C 1288.195312 277.699219 1287.417969 275.925781 1286.785156 274.125 C 1286.601562 273.554688 1286.34375 272.714844 1286.167969 272.144531 C 1284.984375 267.675781 1284.71875 262.949219 1285.503906 258.386719 C 1286.105469 254.945312 1287.210938 251.375 1289.128906 248.371094 C 1292.894531 242.351562 1300.058594 239.371094 1306.96875 240.308594 C 1310.894531 240.796875 1314.488281 242.335938 1317.625 244.621094 C 1318.09375 244.957031 1318.621094 245.277344 1319.132812 245.519531 C 1321.820312 246.847656 1324.691406 245.9375 1327.152344 244.445312 C 1330.886719 242.175781 1334.230469 239.058594 1338.238281 237.074219 C 1338.238281 237.074219 1339.117188 236.648438 1339.117188 236.648438 C 1339.117188 236.648438 1340.035156 236.269531 1340.035156 236.269531 C 1340.035156 236.269531 1340.496094 236.085938 1340.496094 236.085938 C 1340.941406 235.929688 1341.515625 235.757812 1341.933594 235.621094 C 1342.445312 235.503906 1343.390625 235.246094 1343.925781 235.179688 C 1349.824219 234.136719 1355.835938 236.253906 1360.238281 240.183594 C 1360.601562 240.496094 1361.222656 241.019531 1361.546875 241.382812 C 1362.820312 242.636719 1363.976562 244.039062 1364.949219 245.535156 C 1367.820312 249.957031 1369.066406 255.207031 1368.855469 260.410156 C 1368.460938 268.949219 1365.070312 276.542969 1360.308594 283.351562 C 1357.984375 286.585938 1355.351562 289.574219 1352.339844 292.074219 C 1356.175781 285.527344 1359.082031 278.425781 1360.457031 271.085938 C 1361.785156 263.820312 1361.617188 255.851562 1356.40625 250.308594 C 1353.625 247.523438 1349.664062 245.058594 1345.625 246.324219 C 1345.214844 246.449219 1344.792969 246.601562 1344.410156 246.792969 C 1344.410156 246.792969 1344.003906 246.984375 1344.003906 246.984375 C 1344.003906 246.984375 1343.597656 247.21875 1343.597656 247.21875 C 1342.566406 247.804688 1341.6875 248.449219 1340.691406 249.195312 C 1335.0625 253.625 1329.820312 258.050781 1322.175781 258.167969 C 1318.601562 258.207031 1315.082031 257.152344 1312.128906 255.277344 C 1311.609375 254.976562 1311.003906 254.511719 1310.511719 254.164062 C 1309.484375 253.386719 1308.34375 252.742188 1307.140625 252.308594 C 1303.703125 251.050781 1299.878906 251.691406 1297.777344 254.835938 C 1297.484375 255.21875 1297.234375 255.695312 1297.011719 256.128906 C 1295.59375 258.882812 1294.726562 262.050781 1294.503906 265.1875 C 1294.367188 266.785156 1294.425781 268.457031 1294.601562 270.050781 C 1294.601562 270.050781 1294.628906 270.359375 1294.628906 270.359375 C 1294.628906 270.359375 1294.679688 270.660156 1294.679688 270.660156 C 1294.730469 270.960938 1294.824219 271.582031 1294.875 271.882812 C 1294.992188 272.492188 1295.160156 273.089844 1295.285156 273.703125 C 1295.40625 274.101562 1295.707031 275.109375 1295.832031 275.503906 C 1295.980469 275.910156 1296.359375 276.875 1296.503906 277.285156 C 1296.675781 277.65625 1297.144531 278.675781 1297.308594 279.039062 C 1297.617188 279.621094 1297.941406 280.285156 1298.257812 280.855469 C 1302.515625 288.722656 1308.367188 295.65625 1315.378906 301.230469 Z M 1350.132812 303.128906 C 1355.703125 296.117188 1362.636719 290.269531 1370.503906 286.011719 C 1371.074219 285.691406 1371.738281 285.367188 1372.320312 285.058594 C 1372.6875 284.898438 1373.703125 284.425781 1374.074219 284.257812 C 1374.484375 284.109375 1375.449219 283.730469 1375.855469 283.582031 C 1376.25 283.460938 1377.257812 283.15625 1377.660156 283.035156 C 1378.273438 282.910156 1378.867188 282.742188 1379.480469 282.625 C 1379.777344 282.578125 1380.398438 282.484375 1380.699219 282.429688 C 1380.699219 282.429688 1381 282.378906 1381 282.378906 C 1381 282.378906 1381.308594 282.351562 1381.308594 282.351562 C 1382.902344 282.175781 1384.574219 282.117188 1386.171875 282.253906 C 1389.304688 282.476562 1392.476562 283.34375 1395.230469 284.761719 C 1395.664062 284.984375 1396.140625 285.234375 1396.527344 285.527344 C 1399.667969 287.628906 1400.308594 291.453125 1399.050781 294.890625 C 1398.617188 296.09375 1397.976562 297.234375 1397.195312 298.261719 C 1396.851562 298.75 1396.382812 299.359375 1396.082031 299.878906 C 1394.207031 302.832031 1393.152344 306.351562 1393.191406 309.925781 C 1393.3125 317.570312 1397.734375 322.8125 1402.164062 328.441406 C 1402.910156 329.4375 1403.554688 330.316406 1404.140625 331.347656 C 1404.140625 331.347656 1404.375 331.753906 1404.375 331.753906 C 1404.375 331.753906 1404.566406 332.160156 1404.566406 332.160156 C 1404.761719 332.542969 1404.910156 332.964844 1405.035156 333.375 C 1405.941406 336.238281 1404.917969 339.269531 1403.183594 341.621094 C 1403.109375 341.738281 1402.769531 342.222656 1402.695312 342.304688 C 1402.566406 342.453125 1402.304688 342.789062 1402.171875 342.945312 C 1401.359375 343.925781 1400.398438 344.796875 1399.363281 345.542969 C 1388.480469 353.183594 1369.757812 346.292969 1359.285156 340.089844 C 1361.785156 343.105469 1364.769531 345.738281 1368.007812 348.058594 C 1374.816406 352.820312 1382.40625 356.210938 1390.949219 356.605469 C 1396.152344 356.816406 1401.402344 355.570312 1405.824219 352.699219 C 1407.320312 351.726562 1408.722656 350.570312 1409.976562 349.296875 C 1410.339844 348.972656 1410.863281 348.351562 1411.175781 347.988281 C 1415.105469 343.585938 1417.222656 337.574219 1416.179688 331.675781 C 1416.113281 331.144531 1415.855469 330.195312 1415.734375 329.683594 C 1415.597656 329.265625 1415.429688 328.691406 1415.273438 328.246094 L 1415.089844 327.785156 C 1415.089844 327.785156 1414.710938 326.867188 1414.710938 326.867188 C 1414.710938 326.867188 1414.285156 325.988281 1414.285156 325.988281 C 1412.300781 321.980469 1409.183594 318.636719 1406.910156 314.902344 C 1405.421875 312.441406 1404.507812 309.570312 1405.835938 306.882812 C 1406.082031 306.371094 1406.398438 305.84375 1406.738281 305.375 C 1409.023438 302.238281 1410.5625 298.644531 1411.050781 294.71875 C 1411.988281 287.804688 1409.007812 280.644531 1402.988281 276.878906 C 1399.984375 274.960938 1396.414062 273.855469 1392.972656 273.253906 C 1388.410156 272.46875 1383.683594 272.734375 1379.214844 273.917969 C 1378.644531 274.09375 1377.804688 274.351562 1377.234375 274.535156 C 1375.429688 275.167969 1373.660156 275.945312 1371.996094 276.890625 C 1371.527344 277.164062 1371.058594 277.433594 1370.59375 277.707031 C 1370.15625 278.003906 1369.011719 278.773438 1368.589844 279.066406 C 1360.390625 285.164062 1353.53125 293.433594 1350.125 303.132812 Z M 1348.234375 337.878906 C 1355.246094 343.449219 1361.097656 350.386719 1365.355469 358.25 C 1365.675781 358.824219 1366 359.488281 1366.304688 360.066406 C 1366.464844 360.433594 1366.9375 361.449219 1367.109375 361.820312 C 1367.253906 362.234375 1367.632812 363.199219 1367.78125 363.605469 C 1367.902344 363.996094 1368.207031 365.007812 1368.328125 365.40625 C 1368.453125 366.019531 1368.625 366.617188 1368.738281 367.226562 C 1368.789062 367.527344 1368.882812 368.148438 1368.933594 368.445312 C 1368.933594 368.445312 1368.984375 368.75 1368.984375 368.75 C 1368.984375 368.75 1369.011719 369.054688 1369.011719 369.054688 C 1369.191406 370.652344 1369.25 372.324219 1369.109375 373.917969 C 1368.886719 377.054688 1368.019531 380.226562 1366.601562 382.980469 C 1366.382812 383.414062 1366.128906 383.886719 1365.839844 384.273438 C 1363.738281 387.417969 1359.914062 388.058594 1356.476562 386.796875 C 1355.273438 386.367188 1354.128906 385.722656 1353.101562 384.941406 C 1352.613281 384.597656 1352.003906 384.132812 1351.484375 383.832031 C 1348.53125 381.953125 1345.015625 380.898438 1341.4375 380.941406 C 1333.796875 381.058594 1328.550781 385.484375 1322.925781 389.910156 C 1321.925781 390.65625 1321.046875 391.304688 1320.015625 391.886719 C 1320.015625 391.886719 1319.613281 392.121094 1319.613281 392.121094 C 1319.613281 392.121094 1319.207031 392.316406 1319.207031 392.316406 C 1318.824219 392.507812 1318.398438 392.660156 1317.988281 392.785156 C 1315.128906 393.691406 1312.097656 392.664062 1309.742188 390.933594 C 1309.625 390.855469 1309.140625 390.519531 1309.0625 390.445312 C 1308.914062 390.316406 1308.578125 390.054688 1308.417969 389.917969 C 1307.441406 389.105469 1306.570312 388.144531 1305.820312 387.113281 C 1298.183594 376.226562 1305.074219 357.507812 1311.273438 347.035156 C 1308.261719 349.53125 1305.628906 352.519531 1303.304688 355.757812 C 1298.546875 362.566406 1295.152344 370.15625 1294.757812 378.699219 C 1294.546875 383.902344 1295.792969 389.152344 1298.664062 393.574219 C 1299.636719 395.070312 1300.796875 396.472656 1302.066406 397.726562 C 1302.390625 398.089844 1303.015625 398.613281 1303.375 398.925781 C 1307.777344 402.855469 1313.789062 404.972656 1319.6875 403.929688 C 1320.222656 403.863281 1321.171875 403.605469 1321.683594 403.484375 C 1322.097656 403.347656 1322.671875 403.179688 1323.117188 403.023438 C 1323.117188 403.023438 1323.578125 402.839844 1323.578125 402.839844 C 1323.578125 402.839844 1324.5 402.460938 1324.5 402.460938 C 1324.5 402.460938 1325.378906 402.035156 1325.378906 402.035156 C 1329.382812 400.050781 1332.730469 396.933594 1336.460938 394.660156 C 1338.921875 393.171875 1341.792969 392.257812 1344.484375 393.585938 C 1344.992188 393.832031 1345.519531 394.148438 1345.988281 394.488281 C 1349.125 396.773438 1352.71875 398.3125 1356.648438 398.800781 C 1363.558594 399.738281 1370.71875 396.757812 1374.488281 390.738281 C 1376.40625 387.734375 1377.507812 384.164062 1378.113281 380.722656 C 1378.898438 376.160156 1378.628906 371.433594 1377.449219 366.964844 C 1377.269531 366.394531 1377.015625 365.554688 1376.832031 364.984375 C 1376.195312 363.179688 1375.417969 361.410156 1374.472656 359.746094 C 1374.203125 359.277344 1373.933594 358.808594 1373.65625 358.34375 C 1373.363281 357.90625 1372.589844 356.761719 1372.300781 356.339844 C 1366.203125 348.140625 1357.933594 341.28125 1348.234375 337.875 Z M 1313.484375 335.984375 C 1307.914062 342.996094 1300.980469 348.84375 1293.113281 353.101562 C 1292.539062 353.421875 1291.878906 353.746094 1291.296875 354.054688 C 1290.929688 354.214844 1289.914062 354.6875 1289.542969 354.855469 C 1289.132812 355.003906 1288.167969 355.382812 1287.761719 355.53125 C 1287.367188 355.652344 1286.359375 355.957031 1285.957031 356.078125 C 1285.34375 356.203125 1284.75 356.371094 1284.136719 356.488281 C 1283.839844 356.535156 1283.21875 356.628906 1282.917969 356.683594 C 1282.917969 356.683594 1282.617188 356.734375 1282.617188 356.734375 C 1282.617188 356.734375 1282.308594 356.761719 1282.308594 356.761719 C 1280.714844 356.9375 1279.042969 356.996094 1277.445312 356.859375 C 1274.3125 356.636719 1271.136719 355.769531 1268.386719 354.351562 C 1267.953125 354.128906 1267.476562 353.878906 1267.089844 353.585938 C 1263.949219 351.484375 1263.308594 347.660156 1264.566406 344.222656 C 1265 343.019531 1265.640625 341.878906 1266.421875 340.851562 C 1266.765625 340.359375 1267.234375 339.753906 1267.535156 339.234375 C 1269.410156 336.28125 1270.464844 332.761719 1270.421875 329.1875 C 1270.304688 321.542969 1265.882812 316.300781 1261.453125 310.671875 C 1260.707031 309.675781 1260.0625 308.796875 1259.476562 307.765625 C 1259.476562 307.765625 1259.242188 307.359375 1259.242188 307.359375 C 1259.242188 307.359375 1259.050781 306.953125 1259.050781 306.953125 C 1258.855469 306.570312 1258.707031 306.148438 1258.582031 305.738281 C 1257.675781 302.875 1258.699219 299.84375 1260.433594 297.492188 C 1260.507812 297.375 1260.84375 296.890625 1260.921875 296.808594 C 1261.046875 296.660156 1261.3125 296.324219 1261.445312 296.167969 C 1262.257812 295.1875 1263.21875 294.316406 1264.253906 293.570312 C 1272.617188 287.714844 1284.988281 290.5625 1294.007812 293.992188 C 1297.515625 295.378906 1300.96875 297.035156 1304.332031 299.023438 C 1301.832031 296.011719 1298.84375 293.375 1295.609375 291.054688 C 1288.800781 286.292969 1281.207031 282.902344 1272.667969 282.507812 C 1267.460938 282.296875 1262.210938 283.542969 1257.792969 286.414062 C 1256.296875 287.386719 1254.890625 288.542969 1253.640625 289.816406 C 1253.273438 290.140625 1252.753906 290.761719 1252.441406 291.125 C 1248.511719 295.523438 1246.390625 301.542969 1247.4375 307.4375 C 1247.503906 307.972656 1247.761719 308.917969 1247.878906 309.429688 C 1248.015625 309.847656 1248.1875 310.421875 1248.34375 310.867188 C 1248.34375 310.867188 1248.527344 311.328125 1248.527344 311.328125 L 1248.902344 312.246094 C 1248.902344 312.246094 1249.332031 313.125 1249.332031 313.125 C 1251.316406 317.132812 1254.433594 320.476562 1256.703125 324.210938 C 1258.195312 326.671875 1259.105469 329.542969 1257.777344 332.230469 C 1257.535156 332.742188 1257.214844 333.269531 1256.878906 333.738281 C 1254.59375 336.875 1253.054688 340.46875 1252.566406 344.394531 C 1251.628906 351.304688 1254.605469 358.46875 1260.625 362.234375 C 1263.632812 364.152344 1267.203125 365.257812 1270.644531 365.859375 C 1275.203125 366.644531 1279.933594 366.378906 1284.402344 365.195312 C 1284.972656 365.019531 1285.808594 364.761719 1286.382812 364.578125 C 1288.183594 363.945312 1289.957031 363.167969 1291.617188 362.222656 C 1292.085938 361.949219 1292.558594 361.683594 1293.019531 361.40625 C 1293.457031 361.109375 1294.605469 360.339844 1295.023438 360.050781 C 1303.222656 353.949219 1310.082031 345.679688 1313.492188 335.980469 Z M 1313.484375 335.984375 " fill-opacity="1" fill-rule="nonzero"/></svg>