<svg xmlns="http://www.w3.org/2000/svg" xmlns:xlink="http://www.w3.org/1999/xlink" width="1080" zoomAndPan="magnify" viewBox="0 0 810 1012.49997" height="1350" preserveAspectRatio="xMidYMid meet" version="1.0"><defs><g/><clipPath id="5ccf1335c4"><path d="M 0.199219 0 L 809.800781 0 L 809.800781 1012 L 0.199219 1012 Z M 0.199219 0 " clip-rule="nonzero"/></clipPath><clipPath id="afde9bc16b"><path d="M 365.78125 389.628906 L 437.171875 389.628906 L 437.171875 461.023438 L 365.78125 461.023438 Z M 365.78125 389.628906 " clip-rule="nonzero"/></clipPath><clipPath id="9526e2c247"><path d="M 401.476562 389.628906 C 381.761719 389.628906 365.78125 405.613281 365.78125 425.328125 C 365.78125 445.039062 381.761719 461.023438 401.476562 461.023438 C 421.191406 461.023438 437.171875 445.039062 437.171875 425.328125 C 437.171875 405.613281 421.191406 389.628906 401.476562 389.628906 Z M 401.476562 389.628906 " clip-rule="nonzero"/></clipPath><clipPath id="4e0d327715"><path d="M 409 383 L 445 383 L 445 417 L 409 417 Z M 409 383 " clip-rule="nonzero"/></clipPath><clipPath id="43226ebc8d"><path d="M 433.898438 383.503906 L 444.21875 395.269531 L 417.464844 418.730469 L 407.144531 406.960938 Z M 433.898438 383.503906 " clip-rule="nonzero"/></clipPath><clipPath id="a3f1ca0885"><path d="M 409.546875 409.613281 L 415.148438 416.003906 L 444.21875 395.269531 L 433.898438 383.503906 Z M 409.546875 409.613281 " clip-rule="nonzero"/></clipPath><clipPath id="960a9e4c76"><path d="M 378.566406 402.414062 L 424 402.414062 L 424 448 L 378.566406 448 Z M 378.566406 402.414062 " clip-rule="nonzero"/></clipPath></defs><g clip-path="url(#5ccf1335c4)"><path fill="#ffffff" d="M 0.199219 0 L 809.800781 0 L 809.800781 1012 L 0.199219 1012 Z M 0.199219 0 " fill-opacity="1" fill-rule="nonzero"/><path fill="#ffffff" d="M 0.199219 0 L 809.800781 0 L 809.800781 1012 L 0.199219 1012 Z M 0.199219 0 " fill-opacity="1" fill-rule="nonzero"/></g><g fill="#020e27" fill-opacity="1"><g transform="translate(294.21876, 534.486018)"><g><path d="M 38.328125 -14.859375 C 38.328125 -10.023438 36.585938 -6.21875 33.109375 -3.4375 C 29.628906 -0.65625 24.789062 0.734375 18.59375 0.734375 C 12.882812 0.734375 7.832031 -0.335938 3.4375 -2.484375 L 3.4375 -13.03125 C 7.050781 -11.414062 10.109375 -10.28125 12.609375 -9.625 C 15.109375 -8.96875 17.394531 -8.640625 19.46875 -8.640625 C 21.957031 -8.640625 23.867188 -9.113281 25.203125 -10.0625 C 26.535156 -11.019531 27.203125 -12.4375 27.203125 -14.3125 C 27.203125 -15.363281 26.90625 -16.296875 26.3125 -17.109375 C 25.726562 -17.929688 24.867188 -18.71875 23.734375 -19.46875 C 22.597656 -20.226562 20.285156 -21.4375 16.796875 -23.09375 C 13.523438 -24.632812 11.070312 -26.113281 9.4375 -27.53125 C 7.800781 -28.945312 6.492188 -30.59375 5.515625 -32.46875 C 4.546875 -34.34375 4.0625 -36.539062 4.0625 -39.0625 C 4.0625 -43.789062 5.664062 -47.507812 8.875 -50.21875 C 12.082031 -52.925781 16.519531 -54.28125 22.1875 -54.28125 C 24.96875 -54.28125 27.617188 -53.953125 30.140625 -53.296875 C 32.671875 -52.640625 35.3125 -51.710938 38.0625 -50.515625 L 34.40625 -41.6875 C 31.550781 -42.863281 29.191406 -43.679688 27.328125 -44.140625 C 25.460938 -44.609375 23.625 -44.84375 21.8125 -44.84375 C 19.664062 -44.84375 18.019531 -44.34375 16.875 -43.34375 C 15.726562 -42.34375 15.15625 -41.035156 15.15625 -39.421875 C 15.15625 -38.421875 15.382812 -37.546875 15.84375 -36.796875 C 16.3125 -36.054688 17.050781 -35.335938 18.0625 -34.640625 C 19.070312 -33.953125 21.472656 -32.703125 25.265625 -30.890625 C 30.265625 -28.503906 33.691406 -26.109375 35.546875 -23.703125 C 37.398438 -21.296875 38.328125 -18.347656 38.328125 -14.859375 Z M 38.328125 -14.859375 "/></g></g><g transform="translate(335.506962, 534.486018)"><g><path d="M 55.3125 -26.828125 C 55.3125 -17.972656 53.113281 -11.164062 48.71875 -6.40625 C 44.332031 -1.644531 38.035156 0.734375 29.828125 0.734375 C 21.628906 0.734375 15.332031 -1.644531 10.9375 -6.40625 C 6.550781 -11.164062 4.359375 -18 4.359375 -26.90625 C 4.359375 -35.8125 6.5625 -42.613281 10.96875 -47.3125 C 15.375 -52.007812 21.6875 -54.359375 29.90625 -54.359375 C 38.132812 -54.359375 44.425781 -51.988281 48.78125 -47.25 C 53.132812 -42.519531 55.3125 -35.710938 55.3125 -26.828125 Z M 16.25 -26.828125 C 16.25 -20.847656 17.382812 -16.34375 19.65625 -13.3125 C 21.925781 -10.289062 25.316406 -8.78125 29.828125 -8.78125 C 38.890625 -8.78125 43.421875 -14.796875 43.421875 -26.828125 C 43.421875 -38.890625 38.914062 -44.921875 29.90625 -44.921875 C 25.394531 -44.921875 21.988281 -43.398438 19.6875 -40.359375 C 17.394531 -37.316406 16.25 -32.804688 16.25 -26.828125 Z M 16.25 -26.828125 "/></g></g><g transform="translate(395.169877, 534.486018)"><g><path d="M 55.3125 -26.828125 C 55.3125 -17.972656 53.113281 -11.164062 48.71875 -6.40625 C 44.332031 -1.644531 38.035156 0.734375 29.828125 0.734375 C 21.628906 0.734375 15.332031 -1.644531 10.9375 -6.40625 C 6.550781 -11.164062 4.359375 -18 4.359375 -26.90625 C 4.359375 -35.8125 6.5625 -42.613281 10.96875 -47.3125 C 15.375 -52.007812 21.6875 -54.359375 29.90625 -54.359375 C 38.132812 -54.359375 44.425781 -51.988281 48.78125 -47.25 C 53.132812 -42.519531 55.3125 -35.710938 55.3125 -26.828125 Z M 16.25 -26.828125 C 16.25 -20.847656 17.382812 -16.34375 19.65625 -13.3125 C 21.925781 -10.289062 25.316406 -8.78125 29.828125 -8.78125 C 38.890625 -8.78125 43.421875 -14.796875 43.421875 -26.828125 C 43.421875 -38.890625 38.914062 -44.921875 29.90625 -44.921875 C 25.394531 -44.921875 21.988281 -43.398438 19.6875 -40.359375 C 17.394531 -37.316406 16.25 -32.804688 16.25 -26.828125 Z M 16.25 -26.828125 "/></g></g><g transform="translate(454.832793, 534.486018)"><g><path d="M 54.21875 0 L 39.796875 0 L 16.515625 -40.484375 L 16.1875 -40.484375 C 16.644531 -33.335938 16.875 -28.238281 16.875 -25.1875 L 16.875 0 L 6.734375 0 L 6.734375 -53.515625 L 21.046875 -53.515625 L 44.296875 -13.4375 L 44.546875 -13.4375 C 44.179688 -20.382812 44 -25.300781 44 -28.1875 L 44 -53.515625 L 54.21875 -53.515625 Z M 54.21875 0 "/></g></g></g><g clip-path="url(#afde9bc16b)"><g clip-path="url(#9526e2c247)"><path fill="#020e27" d="M 365.78125 389.628906 L 437.171875 389.628906 L 437.171875 461.023438 L 365.78125 461.023438 Z M 365.78125 389.628906 " fill-opacity="1" fill-rule="nonzero"/></g></g><g clip-path="url(#4e0d327715)"><g clip-path="url(#43226ebc8d)"><g clip-path="url(#a3f1ca0885)"><path fill="#020e27" d="M 433.898438 383.503906 L 444.21875 395.269531 L 417.511719 418.691406 L 407.191406 406.921875 Z M 433.898438 383.503906 " fill-opacity="1" fill-rule="nonzero"/></g></g></g><g clip-path="url(#960a9e4c76)"><path fill="#ffffff" d="M 422.613281 432.824219 C 419.976562 436.125 416.007812 436.199219 412.734375 434.523438 C 412.824219 434.648438 412.910156 434.769531 412.992188 434.894531 C 414.628906 437.433594 414.835938 440.859375 413.417969 443.554688 C 411.648438 446.789062 407.542969 447.398438 404.566406 445.546875 C 404.390625 445.433594 404.214844 445.308594 404.046875 445.199219 C 404.027344 445.191406 404.007812 445.171875 403.988281 445.167969 C 403.972656 445.15625 403.957031 445.15625 403.945312 445.152344 C 403.898438 445.140625 403.925781 445.152344 403.925781 445.152344 C 403.429688 445.257812 402.96875 445.660156 402.511719 445.960938 C 401.847656 446.441406 401.078125 446.960938 400.296875 447.304688 C 398.230469 448.234375 395.738281 447.898438 393.976562 446.464844 C 390.675781 443.828125 390.605469 439.859375 392.277344 436.585938 C 392.15625 436.675781 392.03125 436.761719 391.90625 436.84375 C 389.367188 438.476562 385.941406 438.6875 383.246094 437.269531 C 380.011719 435.5 379.402344 431.394531 381.257812 428.417969 C 381.367188 428.242188 381.492188 428.0625 381.601562 427.894531 C 381.609375 427.878906 381.628906 427.859375 381.632812 427.839844 C 381.644531 427.820312 381.644531 427.808594 381.652344 427.796875 C 381.660156 427.75 381.652344 427.777344 381.648438 427.773438 C 381.546875 427.28125 381.140625 426.820312 380.839844 426.363281 C 380.359375 425.695312 379.839844 424.929688 379.496094 424.144531 C 378.566406 422.078125 378.902344 419.585938 380.335938 417.828125 C 382.972656 414.527344 386.941406 414.453125 390.21875 416.128906 C 390.125 416.003906 390.039062 415.882812 389.957031 415.757812 C 388.324219 413.21875 388.113281 409.792969 389.53125 407.097656 C 391.300781 403.863281 395.40625 403.253906 398.386719 405.105469 C 398.558594 405.21875 398.738281 405.34375 398.90625 405.453125 C 398.921875 405.460938 398.945312 405.480469 398.960938 405.484375 C 398.980469 405.496094 398.992188 405.496094 399.007812 405.5 C 399.050781 405.511719 399.023438 405.5 399.027344 405.5 C 399.523438 405.394531 399.980469 404.992188 400.4375 404.691406 C 401.105469 404.210938 401.871094 403.691406 402.65625 403.347656 C 404.722656 402.417969 407.214844 402.753906 408.972656 404.1875 C 412.273438 406.824219 412.347656 410.792969 410.671875 414.066406 C 410.796875 413.976562 410.921875 413.890625 411.046875 413.808594 C 413.582031 412.175781 417.007812 411.964844 419.703125 413.382812 C 422.9375 415.152344 423.546875 419.257812 421.695312 422.238281 C 421.585938 422.410156 421.457031 422.589844 421.347656 422.757812 C 421.339844 422.773438 421.320312 422.792969 421.320312 422.8125 C 421.304688 422.832031 421.304688 422.84375 421.300781 422.859375 C 421.289062 422.902344 421.300781 422.875 421.300781 422.878906 C 421.40625 423.375 421.808594 423.832031 422.109375 424.289062 C 422.59375 424.957031 423.109375 425.722656 423.453125 426.507812 C 424.386719 428.574219 424.050781 431.066406 422.613281 432.824219 Z M 422.613281 432.824219 " fill-opacity="1" fill-rule="nonzero"/></g><path fill="#ffffff" d="M 397.390625 420.769531 C 394.976562 419.921875 392.921875 418.214844 391.402344 416.175781 C 391.332031 416.070312 391.140625 415.785156 391.066406 415.675781 C 390.996094 415.5625 390.929688 415.445312 390.863281 415.328125 C 390.625 414.914062 390.433594 414.472656 390.277344 414.027344 C 390.230469 413.882812 390.167969 413.675781 390.121094 413.53125 C 389.828125 412.421875 389.761719 411.246094 389.957031 410.109375 C 390.105469 409.253906 390.382812 408.367188 390.859375 407.617188 C 391.796875 406.121094 393.578125 405.378906 395.296875 405.613281 C 396.273438 405.734375 397.167969 406.117188 397.949219 406.6875 C 398.0625 406.769531 398.195312 406.851562 398.320312 406.910156 C 398.992188 407.242188 399.703125 407.011719 400.316406 406.644531 C 401.246094 406.078125 402.078125 405.300781 403.074219 404.808594 C 403.074219 404.808594 403.292969 404.703125 403.292969 404.703125 C 403.292969 404.703125 403.523438 404.609375 403.523438 404.609375 C 403.523438 404.609375 403.636719 404.5625 403.636719 404.5625 C 403.746094 404.523438 403.890625 404.480469 403.992188 404.449219 C 404.121094 404.417969 404.355469 404.355469 404.488281 404.339844 C 405.957031 404.078125 407.453125 404.605469 408.546875 405.582031 C 408.636719 405.660156 408.792969 405.789062 408.871094 405.882812 C 409.1875 406.191406 409.476562 406.542969 409.71875 406.914062 C 410.433594 408.011719 410.742188 409.320312 410.691406 410.613281 C 410.59375 412.738281 409.75 414.625 408.566406 416.320312 C 407.984375 417.125 407.332031 417.867188 406.582031 418.488281 C 407.535156 416.863281 408.257812 415.09375 408.601562 413.269531 C 408.929688 411.460938 408.890625 409.480469 407.59375 408.101562 C 406.902344 407.410156 405.917969 406.796875 404.914062 407.109375 C 404.808594 407.140625 404.707031 407.179688 404.609375 407.226562 C 404.609375 407.226562 404.507812 407.273438 404.507812 407.273438 C 404.507812 407.273438 404.40625 407.332031 404.40625 407.332031 C 404.152344 407.476562 403.933594 407.640625 403.683594 407.824219 C 402.285156 408.925781 400.980469 410.027344 399.078125 410.054688 C 398.191406 410.066406 397.316406 409.804688 396.582031 409.335938 C 396.449219 409.261719 396.300781 409.144531 396.179688 409.058594 C 395.921875 408.867188 395.636719 408.707031 395.339844 408.597656 C 394.484375 408.285156 393.53125 408.445312 393.011719 409.226562 C 392.9375 409.324219 392.875 409.441406 392.820312 409.550781 C 392.46875 410.234375 392.25 411.023438 392.195312 411.800781 C 392.160156 412.199219 392.175781 412.617188 392.21875 413.011719 C 392.21875 413.011719 392.226562 413.089844 392.226562 413.089844 C 392.226562 413.089844 392.238281 413.164062 392.238281 413.164062 C 392.253906 413.238281 392.277344 413.394531 392.289062 413.46875 C 392.316406 413.621094 392.359375 413.765625 392.390625 413.921875 C 392.421875 414.019531 392.496094 414.269531 392.527344 414.367188 C 392.5625 414.46875 392.65625 414.710938 392.695312 414.8125 C 392.734375 414.902344 392.851562 415.15625 392.894531 415.246094 C 392.96875 415.390625 393.050781 415.558594 393.128906 415.699219 C 394.1875 417.65625 395.644531 419.382812 397.386719 420.765625 Z M 406.03125 421.238281 C 407.417969 419.496094 409.144531 418.039062 411.101562 416.980469 C 411.242188 416.902344 411.40625 416.820312 411.550781 416.746094 C 411.644531 416.707031 411.894531 416.585938 411.988281 416.546875 C 412.089844 416.507812 412.332031 416.414062 412.429688 416.378906 C 412.53125 416.347656 412.78125 416.273438 412.878906 416.242188 C 413.03125 416.210938 413.179688 416.167969 413.332031 416.140625 C 413.40625 416.128906 413.5625 416.105469 413.636719 416.089844 C 413.636719 416.089844 413.710938 416.078125 413.710938 416.078125 C 413.710938 416.078125 413.789062 416.070312 413.789062 416.070312 C 414.183594 416.027344 414.601562 416.011719 414.996094 416.046875 C 415.777344 416.101562 416.566406 416.320312 417.25 416.671875 C 417.359375 416.726562 417.476562 416.789062 417.574219 416.859375 C 418.355469 417.382812 418.515625 418.335938 418.199219 419.191406 C 418.09375 419.488281 417.933594 419.773438 417.738281 420.03125 C 417.652344 420.152344 417.539062 420.300781 417.460938 420.429688 C 416.996094 421.164062 416.734375 422.039062 416.742188 422.929688 C 416.773438 424.832031 417.875 426.136719 418.976562 427.535156 C 419.160156 427.785156 419.320312 428.003906 419.464844 428.257812 C 419.464844 428.257812 419.523438 428.359375 419.523438 428.359375 C 419.523438 428.359375 419.574219 428.460938 419.574219 428.460938 C 419.621094 428.554688 419.660156 428.660156 419.691406 428.761719 C 419.914062 429.476562 419.660156 430.230469 419.230469 430.8125 C 419.210938 430.84375 419.125 430.964844 419.109375 430.984375 C 419.074219 431.019531 419.011719 431.105469 418.976562 431.144531 C 418.773438 431.386719 418.535156 431.605469 418.277344 431.789062 C 415.570312 433.691406 410.914062 431.976562 408.308594 430.433594 C 408.929688 431.183594 409.675781 431.839844 410.480469 432.414062 C 412.171875 433.601562 414.0625 434.445312 416.1875 434.542969 C 417.480469 434.59375 418.785156 434.285156 419.886719 433.570312 C 420.257812 433.328125 420.605469 433.039062 420.917969 432.722656 C 421.007812 432.644531 421.140625 432.488281 421.214844 432.398438 C 422.195312 431.304688 422.722656 429.808594 422.460938 428.339844 C 422.445312 428.207031 422.382812 427.972656 422.351562 427.84375 C 422.316406 427.742188 422.273438 427.597656 422.234375 427.488281 L 422.191406 427.371094 C 422.191406 427.371094 422.097656 427.144531 422.097656 427.144531 C 422.097656 427.144531 421.988281 426.925781 421.988281 426.925781 C 421.496094 425.929688 420.722656 425.097656 420.15625 424.167969 C 419.785156 423.554688 419.558594 422.84375 419.890625 422.171875 C 419.949219 422.046875 420.027344 421.914062 420.113281 421.796875 C 420.679688 421.019531 421.0625 420.125 421.1875 419.148438 C 421.417969 417.429688 420.679688 415.648438 419.179688 414.710938 C 418.433594 414.234375 417.546875 413.957031 416.6875 413.808594 C 415.554688 413.613281 414.378906 413.679688 413.265625 413.972656 C 413.125 414.015625 412.917969 414.082031 412.773438 414.125 C 412.324219 414.285156 411.886719 414.476562 411.472656 414.714844 C 411.355469 414.78125 411.238281 414.847656 411.121094 414.917969 C 411.015625 414.988281 410.730469 415.179688 410.625 415.253906 C 408.585938 416.769531 406.878906 418.828125 406.03125 421.242188 Z M 405.5625 429.882812 C 407.304688 431.269531 408.761719 432.996094 409.820312 434.949219 C 409.898438 435.09375 409.980469 435.257812 410.054688 435.402344 C 410.097656 435.492188 410.214844 435.746094 410.253906 435.839844 C 410.292969 435.941406 410.386719 436.179688 410.421875 436.28125 C 410.453125 436.378906 410.527344 436.632812 410.558594 436.730469 C 410.589844 436.882812 410.632812 437.03125 410.660156 437.183594 C 410.671875 437.257812 410.695312 437.414062 410.710938 437.488281 C 410.710938 437.488281 410.722656 437.5625 410.722656 437.5625 C 410.722656 437.5625 410.730469 437.636719 410.730469 437.636719 C 410.773438 438.035156 410.789062 438.449219 410.753906 438.847656 C 410.699219 439.628906 410.484375 440.417969 410.128906 441.101562 C 410.074219 441.210938 410.011719 441.328125 409.941406 441.421875 C 409.417969 442.207031 408.464844 442.363281 407.609375 442.050781 C 407.3125 441.945312 407.027344 441.785156 406.773438 441.589844 C 406.648438 441.503906 406.5 441.386719 406.371094 441.3125 C 405.636719 440.847656 404.761719 440.585938 403.871094 440.59375 C 401.96875 440.625 400.664062 441.722656 399.265625 442.824219 C 399.015625 443.011719 398.796875 443.171875 398.542969 443.316406 C 398.542969 443.316406 398.441406 443.375 398.441406 443.375 C 398.441406 443.375 398.339844 443.425781 398.339844 443.425781 C 398.246094 443.472656 398.140625 443.511719 398.039062 443.539062 C 397.324219 443.765625 396.570312 443.511719 395.984375 443.082031 C 395.957031 443.0625 395.835938 442.976562 395.816406 442.957031 C 395.78125 442.925781 395.695312 442.863281 395.65625 442.828125 C 395.414062 442.625 395.195312 442.386719 395.011719 442.128906 C 393.109375 439.421875 394.824219 434.765625 396.367188 432.160156 C 395.617188 432.78125 394.964844 433.523438 394.386719 434.332031 C 393.203125 436.023438 392.359375 437.914062 392.257812 440.035156 C 392.207031 441.332031 392.515625 442.636719 393.230469 443.738281 C 393.472656 444.109375 393.761719 444.457031 394.078125 444.769531 C 394.15625 444.859375 394.3125 444.988281 394.402344 445.066406 C 395.496094 446.046875 396.992188 446.570312 398.460938 446.3125 C 398.59375 446.296875 398.828125 446.230469 398.957031 446.203125 C 399.058594 446.167969 399.203125 446.125 399.3125 446.085938 C 399.3125 446.085938 399.429688 446.042969 399.429688 446.042969 C 399.429688 446.042969 399.65625 445.949219 399.65625 445.949219 C 399.65625 445.949219 399.875 445.839844 399.875 445.839844 C 400.871094 445.347656 401.703125 444.570312 402.632812 444.007812 C 403.246094 443.636719 403.957031 443.410156 404.628906 443.742188 C 404.753906 443.800781 404.886719 443.878906 405.003906 443.964844 C 405.78125 444.53125 406.675781 444.914062 407.652344 445.035156 C 409.371094 445.269531 411.152344 444.527344 412.089844 443.03125 C 412.566406 442.285156 412.84375 441.394531 412.992188 440.539062 C 413.1875 439.40625 413.121094 438.230469 412.828125 437.117188 C 412.785156 436.976562 412.71875 436.769531 412.675781 436.625 C 412.515625 436.175781 412.324219 435.734375 412.085938 435.324219 C 412.019531 435.207031 411.953125 435.089844 411.882812 434.972656 C 411.8125 434.867188 411.621094 434.578125 411.546875 434.476562 C 410.03125 432.4375 407.972656 430.730469 405.5625 429.882812 Z M 396.917969 429.410156 C 395.53125 431.15625 393.804688 432.609375 391.851562 433.671875 C 391.707031 433.75 391.542969 433.832031 391.398438 433.90625 C 391.308594 433.945312 391.054688 434.0625 390.960938 434.105469 C 390.859375 434.144531 390.621094 434.238281 390.519531 434.273438 C 390.421875 434.304688 390.167969 434.378906 390.070312 434.410156 C 389.917969 434.441406 389.769531 434.484375 389.617188 434.511719 C 389.542969 434.523438 389.386719 434.546875 389.3125 434.5625 C 389.3125 434.5625 389.238281 434.574219 389.238281 434.574219 C 389.238281 434.574219 389.164062 434.578125 389.164062 434.578125 C 388.765625 434.625 388.351562 434.640625 387.953125 434.605469 C 387.171875 434.550781 386.382812 434.332031 385.699219 433.980469 C 385.589844 433.925781 385.472656 433.863281 385.378906 433.789062 C 384.59375 433.269531 384.4375 432.316406 384.75 431.460938 C 384.855469 431.164062 385.015625 430.878906 385.210938 430.621094 C 385.296875 430.5 385.414062 430.351562 385.488281 430.21875 C 385.953125 429.484375 386.214844 428.609375 386.207031 427.722656 C 386.175781 425.820312 385.078125 424.515625 383.976562 423.117188 C 383.789062 422.867188 383.628906 422.648438 383.484375 422.394531 C 383.484375 422.394531 383.425781 422.292969 383.425781 422.292969 C 383.425781 422.292969 383.378906 422.191406 383.378906 422.191406 C 383.328125 422.09375 383.292969 421.992188 383.261719 421.886719 C 383.035156 421.175781 383.289062 420.421875 383.722656 419.835938 C 383.738281 419.808594 383.824219 419.6875 383.84375 419.667969 C 383.875 419.632812 383.941406 419.546875 383.972656 419.507812 C 384.175781 419.265625 384.414062 419.046875 384.671875 418.863281 C 386.75 417.40625 389.828125 418.113281 392.074219 418.96875 C 392.945312 419.3125 393.804688 419.722656 394.640625 420.21875 C 394.019531 419.46875 393.277344 418.8125 392.472656 418.234375 C 390.777344 417.050781 388.886719 416.207031 386.765625 416.109375 C 385.46875 416.058594 384.164062 416.367188 383.0625 417.082031 C 382.691406 417.324219 382.34375 417.613281 382.03125 417.929688 C 381.941406 418.007812 381.8125 418.164062 381.734375 418.253906 C 380.757812 419.347656 380.230469 420.84375 380.488281 422.3125 C 380.503906 422.445312 380.570312 422.679688 380.597656 422.808594 C 380.632812 422.910156 380.675781 423.054688 380.714844 423.164062 C 380.714844 423.164062 380.757812 423.277344 380.757812 423.277344 L 380.851562 423.507812 C 380.851562 423.507812 380.960938 423.726562 380.960938 423.726562 C 381.453125 424.722656 382.230469 425.554688 382.792969 426.484375 C 383.164062 427.09375 383.390625 427.808594 383.0625 428.476562 C 383 428.605469 382.921875 428.738281 382.835938 428.851562 C 382.269531 429.632812 381.886719 430.527344 381.765625 431.503906 C 381.53125 433.222656 382.273438 435.003906 383.769531 435.941406 C 384.515625 436.417969 385.40625 436.695312 386.261719 436.84375 C 387.394531 437.039062 388.570312 436.972656 389.683594 436.679688 C 389.824219 436.632812 390.035156 436.570312 390.175781 436.523438 C 390.625 436.367188 391.066406 436.171875 391.476562 435.9375 C 391.59375 435.871094 391.710938 435.804688 391.828125 435.734375 C 391.9375 435.660156 392.222656 435.46875 392.324219 435.398438 C 394.363281 433.882812 396.070312 431.824219 396.917969 429.410156 Z M 396.917969 429.410156 " fill-opacity="1" fill-rule="nonzero"/></svg>